<mxfile host="app.diagrams.net" modified="2020-12-31T10:01:02.174Z" agent="5.0 (Windows NT 10.0; Win64; x64) AppleWebKit/537.36 (KHTML, like Gecko) Chrome/85.0.4183.83 Safari/537.36" etag="G7QMPaO4QVDUZjbUaq3T" version="14.1.4" type="github">
  <diagram id="RLgI3TU7ti4vKoX4Nog5" name="第 1 页">
    <mxGraphModel dx="1422" dy="762" grid="1" gridSize="10" guides="1" tooltips="1" connect="1" arrows="1" fold="1" page="1" pageScale="1" pageWidth="827" pageHeight="1169" math="0" shadow="0">
      <root>
        <mxCell id="0" />
        <mxCell id="1" parent="0" />
        <mxCell id="vR_oDYrJMxpzFRZyZQFF-1" value="" style="rounded=0;whiteSpace=wrap;html=1;" vertex="1" parent="1">
          <mxGeometry x="60" y="120" width="720" height="570" as="geometry" />
        </mxCell>
        <mxCell id="vR_oDYrJMxpzFRZyZQFF-3" value="specChanged true" style="rounded=0;whiteSpace=wrap;html=1;fillColor=#e1d5e7;strokeColor=#9673a6;" vertex="1" parent="1">
          <mxGeometry x="70" y="210" width="160" height="330" as="geometry" />
        </mxCell>
        <mxCell id="vR_oDYrJMxpzFRZyZQFF-5" value="specChanged false" style="rounded=0;whiteSpace=wrap;html=1;fillColor=#e1d5e7;strokeColor=#9673a6;" vertex="1" parent="1">
          <mxGeometry x="70" y="570" width="160" height="110" as="geometry" />
        </mxCell>
        <mxCell id="vR_oDYrJMxpzFRZyZQFF-6" value="sAlwaysRemeasureExactly true" style="rounded=0;whiteSpace=wrap;html=1;fillColor=#f8cecc;strokeColor=#b85450;" vertex="1" parent="1">
          <mxGeometry x="240" y="210" width="190" height="40" as="geometry" />
        </mxCell>
        <mxCell id="vR_oDYrJMxpzFRZyZQFF-7" value="isSpecExactly false" style="rounded=0;whiteSpace=wrap;html=1;fillColor=#dae8fc;strokeColor=#6c8ebf;" vertex="1" parent="1">
          <mxGeometry x="240" y="380" width="190" height="40" as="geometry" />
        </mxCell>
        <mxCell id="vR_oDYrJMxpzFRZyZQFF-9" value="matchesSpecSize false" style="rounded=0;whiteSpace=wrap;html=1;fillColor=#ffe6cc;strokeColor=#d79b00;" vertex="1" parent="1">
          <mxGeometry x="240" y="490" width="190" height="40" as="geometry" />
        </mxCell>
        <mxCell id="vR_oDYrJMxpzFRZyZQFF-10" value="sAlwaysRemeasureExactly false" style="rounded=0;whiteSpace=wrap;html=1;fillColor=#f8cecc;strokeColor=#b85450;" vertex="1" parent="1">
          <mxGeometry x="240" y="260" width="190" height="40" as="geometry" />
        </mxCell>
        <mxCell id="vR_oDYrJMxpzFRZyZQFF-11" value="isSpecExactly true" style="rounded=0;whiteSpace=wrap;html=1;fillColor=#dae8fc;strokeColor=#6c8ebf;" vertex="1" parent="1">
          <mxGeometry x="240" y="330" width="190" height="40" as="geometry" />
        </mxCell>
        <mxCell id="vR_oDYrJMxpzFRZyZQFF-12" value="matchesSpecSize true" style="rounded=0;whiteSpace=wrap;html=1;fillColor=#ffe6cc;strokeColor=#d79b00;" vertex="1" parent="1">
          <mxGeometry x="240" y="440" width="190" height="40" as="geometry" />
        </mxCell>
        <mxCell id="vR_oDYrJMxpzFRZyZQFF-13" value="需要" style="rounded=0;whiteSpace=wrap;html=1;fillColor=#008a00;strokeColor=#005700;fontColor=#ffffff;" vertex="1" parent="1">
          <mxGeometry x="450" y="385" width="160" height="40" as="geometry" />
        </mxCell>
        <mxCell id="vR_oDYrJMxpzFRZyZQFF-14" value="结果：重新测量" style="rounded=0;whiteSpace=wrap;html=1;" vertex="1" parent="1">
          <mxGeometry x="450" y="140" width="160" height="50" as="geometry" />
        </mxCell>
        <mxCell id="vR_oDYrJMxpzFRZyZQFF-15" value="不需要" style="rounded=0;whiteSpace=wrap;html=1;fillColor=#a20025;strokeColor=#6F0000;fontColor=#ffffff;" vertex="1" parent="1">
          <mxGeometry x="450" y="260" width="160" height="40" as="geometry" />
        </mxCell>
        <mxCell id="vR_oDYrJMxpzFRZyZQFF-16" value="此次Measure是否精确模式，是true，否false" style="rounded=0;whiteSpace=wrap;html=1;" vertex="1" parent="1">
          <mxGeometry x="620" y="330" width="150" height="90" as="geometry" />
        </mxCell>
        <mxCell id="vR_oDYrJMxpzFRZyZQFF-18" value="第一判断位" style="rounded=0;whiteSpace=wrap;html=1;" vertex="1" parent="1">
          <mxGeometry x="70" y="140" width="160" height="50" as="geometry" />
        </mxCell>
        <mxCell id="vR_oDYrJMxpzFRZyZQFF-19" value="第二判断位" style="rounded=0;whiteSpace=wrap;html=1;" vertex="1" parent="1">
          <mxGeometry x="240" y="140" width="190" height="50" as="geometry" />
        </mxCell>
        <mxCell id="vR_oDYrJMxpzFRZyZQFF-20" value="第二判断位释义" style="rounded=0;whiteSpace=wrap;html=1;" vertex="1" parent="1">
          <mxGeometry x="615" y="140" width="160" height="50" as="geometry" />
        </mxCell>
        <mxCell id="vR_oDYrJMxpzFRZyZQFF-21" value="不需要" style="rounded=0;whiteSpace=wrap;html=1;fillColor=#a20025;strokeColor=#6F0000;fontColor=#ffffff;" vertex="1" parent="1">
          <mxGeometry x="450" y="330" width="160" height="40" as="geometry" />
        </mxCell>
        <mxCell id="vR_oDYrJMxpzFRZyZQFF-22" value="&amp;lt;=Android 6.0为true,&lt;br&gt;大于为false" style="rounded=0;whiteSpace=wrap;html=1;" vertex="1" parent="1">
          <mxGeometry x="620" y="210" width="150" height="90" as="geometry" />
        </mxCell>
        <mxCell id="vR_oDYrJMxpzFRZyZQFF-23" value="需要" style="rounded=0;whiteSpace=wrap;html=1;fillColor=#008a00;strokeColor=#005700;fontColor=#ffffff;" vertex="1" parent="1">
          <mxGeometry x="450" y="210" width="160" height="40" as="geometry" />
        </mxCell>
        <mxCell id="vR_oDYrJMxpzFRZyZQFF-24" value="不需要" style="rounded=0;whiteSpace=wrap;html=1;fillColor=#a20025;strokeColor=#6F0000;fontColor=#ffffff;" vertex="1" parent="1">
          <mxGeometry x="450" y="440" width="160" height="40" as="geometry" />
        </mxCell>
        <mxCell id="vR_oDYrJMxpzFRZyZQFF-25" value="需要" style="rounded=0;whiteSpace=wrap;html=1;fillColor=#008a00;strokeColor=#005700;fontColor=#ffffff;" vertex="1" parent="1">
          <mxGeometry x="450" y="490" width="160" height="40" as="geometry" />
        </mxCell>
        <mxCell id="vR_oDYrJMxpzFRZyZQFF-26" value="此次测量的Mesaure大小与已保存大小一致，是 true ，否false" style="rounded=0;whiteSpace=wrap;html=1;" vertex="1" parent="1">
          <mxGeometry x="620" y="440" width="150" height="90" as="geometry" />
        </mxCell>
        <mxCell id="vR_oDYrJMxpzFRZyZQFF-27" value="不需要测量，MeasureSpec与上次一致" style="rounded=0;whiteSpace=wrap;html=1;fillColor=#a20025;strokeColor=#6F0000;fontColor=#ffffff;" vertex="1" parent="1">
          <mxGeometry x="240" y="570" width="530" height="110" as="geometry" />
        </mxCell>
      </root>
    </mxGraphModel>
  </diagram>
</mxfile>
